<?xml version="1.0" encoding="UTF-8"?>
<!DOCTYPE svg PUBLIC "-//W3C//DTD SVG 1.1//EN" "http://www.w3.org/Graphics/SVG/1.1/DTD/svg11.dtd">
<svg xmlns="http://www.w3.org/2000/svg" version="1.1" width="370px" height="220px" style="shape-rendering:geometricPrecision; text-rendering:geometricPrecision; image-rendering:optimizeQuality; fill-rule:evenodd; clip-rule:evenodd" xmlns:xlink="http://www.w3.org/1999/xlink">
<g><path style="opacity:1" fill="#878787" d="M 111.5,41.5 C 112.302,40.1153 112.969,40.282 113.5,42C 113.43,42.7648 113.097,43.2648 112.5,43.5C 112.672,42.5084 112.338,41.8417 111.5,41.5 Z"/></g>
<g><path style="opacity:1" fill="#fbe8f7" d="M 111.5,41.5 C 112.338,41.8417 112.672,42.5084 112.5,43.5C 106.465,58.0998 101.965,73.0998 99,88.5C 108.803,77.696 118.97,67.196 129.5,57C 137.873,49.3137 147.54,43.9803 158.5,41C 167.004,40.0018 173.504,43.1685 178,50.5C 179.581,56.7226 179.915,63.0559 179,69.5C 173.337,90.156 166.67,110.489 159,130.5C 156.769,145.305 162.269,149.138 175.5,142C 197.581,122.922 216.415,101.089 232,76.5C 237.505,66.9896 242.339,57.1563 246.5,47C 257.693,44.2005 269.026,42.3672 280.5,41.5C 279.449,45.8266 278.282,50.16 277,54.5C 276.447,61.1878 277.78,67.5211 281,73.5C 298.601,95.1995 298.934,117.2 282,139.5C 270.803,154.184 256.303,164.017 238.5,169C 224.475,172.768 212.642,169.268 203,158.5C 200.963,154.666 201.296,150.999 204,147.5C 207.754,141.742 212.254,136.575 217.5,132C 220.835,129.709 223.668,130.209 226,133.5C 228.872,138.579 231.205,143.912 233,149.5C 238.747,155.215 245.247,156.048 252.5,152C 269.518,139.395 272.018,124.228 260,106.5C 253.641,97.7859 248.308,88.4526 244,78.5C 229.641,100.363 213.474,120.863 195.5,140C 185.613,149.898 174.613,158.231 162.5,165C 154.281,169.111 145.614,170.777 136.5,170C 127.935,166.716 122.769,160.549 121,151.5C 119.93,141.296 120.93,131.296 124,121.5C 129.14,106.413 134.473,91.4132 140,76.5C 141.217,72.6466 140.05,69.9799 136.5,68.5C 132.722,69.5551 129.389,71.3884 126.5,74C 115.226,84.2688 105.059,95.4355 96,107.5C 94.3921,110.382 93.0587,113.382 92,116.5C 88.9744,131.685 87.8077,147.018 88.5,162.5C 77.6842,164.537 67.0175,167.204 56.5,170.5C 51.2395,135.768 55.0728,102.101 68,69.5C 71,62.5 74,55.5 77,48.5C 88.3061,45.3646 99.8061,43.0312 111.5,41.5 Z"/></g>
</svg>
